<svg width="98" height="50" viewBox="0 0 98 50" fill="none" xmlns="http://www.w3.org/2000/svg">
<path d="M69.8833 26.903C66.7802 26.903 64.3288 29.2987 64.3288 32.401C64.3288 35.5032 66.7492 37.8989 69.8833 37.8989C72.9864 37.8989 75.4378 35.5032 75.4378 32.401C75.4068 29.4216 72.8622 26.903 69.8833 26.903ZM72.4278 34.7353C71.7761 35.4417 70.8452 35.841 69.8522 35.841C68.0214 35.841 66.532 34.3667 66.532 32.5545C66.532 30.7423 68.0214 29.268 69.8522 29.268C71.6831 29.268 73.1725 30.7423 73.1725 32.5545C73.2967 33.2917 73.0174 34.121 72.4278 34.7353Z" fill="#0033A0"/>
<path d="M14.6169 26.903C11.5138 26.903 9.06237 29.2987 9.06237 32.4009C9.06237 35.5032 11.5138 37.8682 14.6169 37.8682C17.72 37.8682 20.1714 35.4724 20.1714 32.3702C19.9852 29.4216 17.4407 26.903 14.6169 26.903ZM14.6169 35.841C12.7861 35.841 11.2966 34.3667 11.2966 32.5545C11.2966 30.7423 12.7861 29.268 14.6169 29.268C16.4477 29.268 17.9372 30.7423 17.9372 32.5545C17.9372 34.3053 16.3856 35.841 14.6169 35.841Z" fill="#0033A0"/>
<path d="M45.3068 21.8381H43.6001C43.0726 21.8381 42.483 22.2374 42.483 22.9438C42.483 23.466 42.8864 24.0496 43.6001 24.0496H45.3068C45.8343 24.0496 46.4239 23.6503 46.4239 22.9438C46.4239 22.4217 46.0205 21.8381 45.3068 21.8381Z" fill="#0033A0"/>
<path d="M28.9548 21.8381H27.2481C26.7206 21.8381 26.131 22.2374 26.131 22.9438C26.131 23.466 26.5344 24.0496 27.2481 24.0496H28.9548C29.4824 24.0496 30.0719 23.6503 30.0719 22.9438C30.0409 22.4217 29.6685 21.8381 28.9548 21.8381Z" fill="#0033A0"/>
<path d="M81.8002 26.0447H82.0795C82.2036 25.9525 82.3277 25.8911 82.4829 25.799C82.9173 25.5532 83.3207 25.2768 83.6931 24.9389C83.7551 24.8775 83.8172 24.8775 83.8793 24.8775C83.9413 24.8775 84.0034 24.9082 84.0654 24.9389C84.7792 25.6454 85.648 26.1368 86.5169 26.5668V25.2768C86.5169 21.3453 83.662 17.9052 79.7211 17.0759L66.7503 14.588H66.471C66.3469 14.588 66.2538 14.4958 66.2228 14.4037C65.8814 12.9293 64.6092 11.9158 63.0576 11.9158H62.9025C62.8404 11.9158 62.7784 11.885 62.7473 11.8543L58.8374 8.47567C58.403 8.04565 57.7203 8.22994 57.3169 8.62924C56.9135 9.02854 57.0687 9.73498 57.5031 10.1343L59.8615 11.7929C59.9235 11.8543 59.9856 11.9158 59.9546 12.0079C59.9235 12.1 59.8925 12.1615 59.7994 12.2229C59.3339 12.4379 58.7444 12.8679 58.5582 13.5744C58.5271 13.6665 58.4651 13.7279 58.403 13.7587C58.3099 13.7894 58.2168 13.7587 58.1548 13.6972L52.1348 8.59853C50.8005 7.43135 49.1559 6.63276 47.4802 6.2949C37.4262 3.77626 26.3793 4.11413 16.3874 7.30849C14.0601 8.1378 11.8879 9.79641 10.5536 11.7622C10.0881 12.5301 10.3054 13.5437 11.0191 14.1272L16.3253 18.7038C16.6046 18.9802 17.039 19.1338 17.5355 19.1338H58.8064C58.8685 19.1338 58.9305 19.1645 58.9926 19.1952C59.6442 19.8402 60.42 20.1474 61.382 20.1474H63.2438C65.0746 20.1474 66.5641 18.6731 66.5641 16.8609V16.7073C66.5641 16.6459 66.5951 16.5537 66.6572 16.523C66.7193 16.4616 66.7813 16.4616 66.8744 16.4616L78.2937 18.8266C78.4179 18.8574 78.5109 18.9495 78.5109 19.0724V22.7889C78.4799 24.6318 79.9073 26.0447 81.8002 26.0447ZM80.3728 19.7174C80.3728 19.5638 80.4969 19.4717 80.621 19.4717H80.7762C80.8072 19.4717 80.8693 19.4717 80.9003 19.5024C82.7622 20.4238 83.9413 21.8981 84.2827 23.7411C84.2827 23.8025 84.2827 23.8946 84.2206 23.9561C84.1585 24.0175 84.0965 24.0482 84.0344 24.0482H81.6451C80.9934 24.0482 80.3728 23.4339 80.3728 22.7889V19.7174ZM22.6556 16.8609C22.5935 16.9223 22.5315 16.953 22.4694 16.953H17.6907C17.6286 16.953 17.5665 16.9223 17.5355 16.8916L12.7568 12.8372C12.6637 12.7451 12.6327 12.6222 12.7258 12.4993C14.6807 9.67355 17.6286 8.99782 21.073 8.16851C21.1351 8.1378 21.2282 8.16851 21.2592 8.19923C21.3213 8.22994 21.3523 8.29137 21.3833 8.38352L22.7487 16.6459C22.7177 16.738 22.7177 16.7994 22.6556 16.8609ZM38.7606 16.8609C38.7606 17.0145 38.6364 17.1066 38.5123 17.1066H25.2001C25.076 17.1066 24.9829 17.0145 24.9519 16.8916L23.4314 7.95351C23.3693 7.83065 23.4624 7.67707 23.6175 7.67707C30.2892 6.38704 35.4403 6.66348 37.6434 6.78634C38.0468 6.81705 38.3261 6.81705 38.5123 6.81705C38.6675 6.81705 38.7606 6.93991 38.7606 7.06277V16.8609ZM58.0306 16.8609C58.0306 17.0145 57.9065 17.1066 57.7824 17.1066H41.0568C40.9017 17.1066 40.8086 16.9837 40.8086 16.8609V7.40064C40.8086 7.33921 40.8396 7.24706 40.9017 7.21635C40.9637 7.15492 41.0258 7.15492 41.1189 7.15492C43.3221 7.49278 45.215 7.83065 46.7665 8.16851C48.0077 8.47566 49.1869 9.05925 50.6143 10.0728L57.9686 16.3387C58.0306 16.4002 58.0617 16.4616 58.0617 16.523V16.8609H58.0306ZM64.1747 16.8609C64.1747 17.5059 63.7093 17.9666 63.0576 17.9666H61.1958C60.5131 17.9666 60.0787 17.3216 60.0787 16.8609V15.018C60.0787 14.373 60.5441 13.9122 61.1958 13.9122H63.0576C63.7093 13.9122 64.1747 14.373 64.1747 15.018V16.8609Z" fill="#0033A0"/>
<path d="M70.0364 22.8493C65.9714 22.8493 62.2477 25.4294 60.7272 29.2687C60.6962 29.3609 60.6031 29.4223 60.479 29.4223H24.173C24.0799 29.4223 23.9557 29.3609 23.9247 29.2687C22.4352 25.3679 18.8046 22.8493 14.6155 22.8493C10.5505 22.8493 6.82677 25.4294 5.30626 29.2687C5.27523 29.3609 5.18214 29.4223 5.05801 29.4223H3.69266C3.56854 29.4223 3.47545 29.3609 3.44441 29.238L3.10308 28.0709L3.00998 27.6408C2.88586 26.9651 2.76174 26.4122 2.76174 25.8287V24.9994C2.76174 24.8458 2.88586 24.7536 3.00998 24.7536H4.37534C6.20615 24.7536 7.69563 23.2793 7.69563 21.4671V20.2999C7.69563 18.5492 6.42337 17.167 4.68565 17.0134C4.59255 17.0134 4.53049 16.952 4.46843 16.8599C4.4374 16.7677 4.4374 16.6756 4.46843 16.6141L8.37831 10.5326C9.86778 8.07535 12.4123 6.10959 15.5154 5.03456C29.293 0.30444 41.7364 2.11663 47.9425 3.62167C49.8044 3.95953 51.5421 4.78884 53.0005 6.04816C53.435 6.47817 54.1177 6.29388 54.5211 5.89458C54.7693 5.67958 54.7693 5.37243 54.7383 5.18814C54.7072 4.9117 54.5521 4.63526 54.3349 4.42026C52.2868 2.94594 50.456 2.0552 48.5011 1.62519C42.0467 0.0894347 29.1069 -1.66132 14.8637 3.09951C11.6676 4.05168 8.75068 6.29388 6.79574 9.24252L2.35834 15.9998C1.24123 17.8427 0.682677 19.6242 0.682677 21.4364V25.7979C0.682677 26.4737 0.8068 27.3337 1.02402 28.4394L1.36535 29.4223C1.39638 29.5452 1.33432 29.6988 1.2102 29.7295C0.465461 30.0366 0 30.9581 0 31.6952V33.0467C0 34.521 1.14814 35.6575 2.63761 35.6575H5.02698C5.12008 35.6575 5.21317 35.7189 5.27523 35.8111C6.82677 39.7733 10.3953 42.2305 14.5845 42.2305C18.7736 42.2305 22.3421 39.7733 23.8937 35.8111C23.9247 35.7189 24.0178 35.6575 24.1419 35.6575H36.7715C37.299 35.6575 37.8886 35.2582 37.8886 34.5517C37.8886 34.0296 37.4852 33.446 36.7715 33.446H24.6695C24.5143 33.446 24.4212 33.3231 24.4212 33.2003V31.5109C24.4212 31.3574 24.5453 31.2652 24.6695 31.2652H59.7963C59.9514 31.2652 60.0445 31.3881 60.0445 31.5109V33.2003C60.0445 33.3539 59.9204 33.446 59.7963 33.446H42.7294C42.2018 33.446 41.6123 33.8453 41.6123 34.5517C41.6123 35.0739 42.0157 35.6575 42.7294 35.6575H60.2928C60.3859 35.6575 60.479 35.7189 60.541 35.8111C62.1236 39.7733 65.6611 42.2305 69.8503 42.2305C72.8602 42.2305 75.653 40.9098 77.5769 38.5754C77.2045 37.8382 76.9253 37.0704 76.7391 36.3332C75.3427 38.729 72.7671 40.234 70.0364 40.234C65.6921 40.234 62.2787 36.8554 62.2787 32.5553C62.2787 28.378 65.8473 24.8765 70.0364 24.8765C72.4258 24.8765 74.7841 26.0437 76.3357 27.9787C76.3977 27.9173 76.4598 27.8866 76.5219 27.8866C77.2356 27.8866 77.9803 27.7637 78.694 27.6101C76.9563 24.6922 73.6981 22.8493 70.0364 22.8493ZM3.10308 19.3171C3.13411 19.1942 3.2272 19.1328 3.35132 19.1328H4.37534C5.02698 19.1328 5.49244 19.5935 5.49244 20.2385V21.4057C5.49244 22.0507 5.02698 22.5114 4.37534 22.5114H3.00998C2.85483 22.5114 2.76174 22.3886 2.76174 22.2657C2.76174 21.2214 2.88586 20.2385 3.10308 19.3171ZM4.62358 33.5689C4.62358 33.7224 4.49946 33.8146 4.37534 33.8146H2.66865C2.54452 33.8146 2.4204 33.6917 2.4204 33.5689C2.29628 33.4767 2.23421 33.3539 2.23421 33.231V31.8795C2.23421 31.6031 2.45143 31.4495 2.66865 31.4495H4.37534C4.53049 31.4495 4.62358 31.5724 4.62358 31.6952V33.5689ZM14.6155 40.234C10.2712 40.234 6.8578 36.8554 6.8578 32.5553C6.8578 28.378 10.4263 24.8765 14.6155 24.8765C18.8357 24.8765 22.3732 28.4087 22.3732 32.5553C22.3732 36.7018 18.8046 40.234 14.6155 40.234Z" fill="#0033A0"/>
<path d="M86.0938 24C86.25 24 86.4027 24.0437 86.5327 24.1256C89.5242 26.0344 92.9342 27.276 96.506 27.7571C96.6951 27.7823 96.8681 27.8714 96.9933 28.0078C97.1185 28.1442 97.1875 28.3188 97.1875 28.4995V35.2494C97.1875 41.0843 93.5313 45.3443 86.379 47.9497C86.1954 48.0168 85.9921 48.0168 85.8085 47.9497C78.6562 45.3443 75 41.0858 75 35.2494V28.4995C75 28.3191 75.0687 28.1446 75.1936 28.0082C75.3185 27.8719 75.4911 27.7827 75.6799 27.7571C79.2523 27.2763 82.6628 26.0346 85.6548 24.1256C85.7848 24.0437 85.9375 24 86.0938 24Z" fill="#FFE946"/>
<path d="M97.9724 29.2248C97.9724 28.4569 97.9311 27.7293 97.9311 27.0422C97.9311 26.4764 97.477 26.0722 96.9403 26.0722C92.6468 26.0722 89.3853 24.8596 86.7018 22.2728C86.289 21.9091 85.711 21.9091 85.2982 22.2728C82.5734 24.8596 79.312 26.0722 75.0597 26.0722C74.4817 26.0722 74.0689 26.5168 74.0689 27.0422C74.0689 27.7293 74.0689 28.4569 74.0276 29.2248C73.9037 36.2577 73.6973 45.8773 85.6697 49.9596C85.7936 50 85.8761 50 86 50C86.1239 50 86.2064 50 86.3303 49.9596C98.3027 45.8773 98.0963 36.2577 97.9724 29.2248ZM86 47.9791C75.7202 44.301 75.8854 36.2981 76.0505 29.2652C76.0505 28.8611 76.0505 28.4165 76.0918 28.0123C80.0964 27.8506 83.2752 26.638 86.0413 24.2938C88.766 26.638 91.9862 27.8506 95.9908 28.0123C95.9908 28.4165 95.9908 28.8206 96.0321 29.2652C96.1146 36.3385 96.2385 44.3414 86 47.9791Z" fill="#0033A0"/>
<path d="M90.0563 31.4185L84.4164 37.8367L81.9993 35.0861C81.5562 34.5818 80.7908 34.5818 80.3476 35.0861C79.8642 35.5904 79.9045 36.4614 80.3476 36.9657L83.5704 40.6332C83.8121 40.9083 84.0941 41 84.3761 41C84.6581 41 84.9804 40.8625 85.1818 40.6332L91.6677 33.2523C92.1108 32.748 92.1108 31.877 91.6677 31.3727C91.2648 30.8684 90.4994 30.8684 90.0563 31.4185Z" fill="#0033A0"/>
</svg>
